<svg width="1em" height="0.8684210526315789em" viewBox="0 0 379 330" fill="none" xmlns="http://www.w3.org/2000/svg"><path d="M255.736 312.927L254.882 312.295L256.008 310.765L257.188 309.38L258.141 307.769L259.256 306.199L260.51 304.815L261.665 303.44L262.65 301.775L263.872 300.394L264.984 298.928L266.177 297.518L267.183 295.885L268.38 294.507L269.376 292.977L270.268 293.556L269.206 295.178L268.012 296.552L267.013 298.175L265.813 299.595L264.679 301.086L263.478 302.443L262.508 304.09L261.311 305.518L260.064 306.892L259.019 308.365L258.024 310.034L256.83 311.443L255.736 312.927Z" fill="#07122B"></path><path d="M58.9682 105.221L58.4688 107.131L58.1005 108.978L57.679 110.81L57.4169 112.681L57.006 114.517L56.6553 116.366L56.4145 118.238L55.9257 120.055L55.3094 121.852L54.9871 123.752L56.7793 124.313L58.529 124.87L60.2859 125.392L62.0746 125.821L63.796 126.471L65.5457 127.025L67.3238 127.483L69.0558 128.09L70.7985 128.662L72.573 129.134L74.3794 129.503L76.0725 130.249L77.8895 130.583L79.6251 131.19L81.3748 131.737L83.0644 132.496L84.8283 133.011L86.5532 133.334L87.0774 131.762L87.6123 130.086L87.715 128.303L88.4234 126.67L88.6359 124.916L89.1034 123.222L89.617 121.543L89.9146 119.807L90.2546 118.085L90.6584 116.374L91.2924 114.719L91.466 113.082L89.7658 112.734L88.0338 111.967L86.1494 111.864L84.3891 111.232L82.5827 110.796L80.7479 110.48L78.9557 109.99L77.1599 109.503L75.2933 109.322L73.5435 108.644L71.7017 108.36L69.9342 107.746L68.0782 107.526L66.2966 106.975L64.4371 106.755L62.6448 106.251L60.8136 105.896L58.9682 105.221Z" fill="#EF457E"></path><path d="M187.255 135.777L187.039 137.673L186.738 139.42L186.429 141.167L186.065 142.9L185.455 144.583L185.165 146.333L184.821 148.073L184.343 149.784L184.177 151.563L183.575 153.25L183.231 154.989L182.856 156.722L182.735 158.511L182.395 160.166L183.978 160.819L185.728 161.235L187.396 161.909L189.157 162.293L190.822 162.978L192.571 163.386L194.211 164.15L195.972 164.533L197.7 165.023L199.351 165.758L201.139 166.049L202.847 166.603L204.494 167.338L206.233 167.792L207.982 168.219L209.714 168.694L211.322 169.554L213.132 169.777L214.769 170.562L216.543 170.892L218.166 171.719L219.976 171.947L221.615 172.71L223.298 173.345L225.034 173.811L226.805 174.166L228.476 174.844L230.254 175.174L231.862 175.778L232.475 174.155L232.911 172.405L233.166 170.604L233.58 168.847L234.204 167.143L234.498 165.353L234.997 163.617L235.348 161.845L235.844 160.106L236.233 158.341L236.878 156.64L237.186 154.854L237.643 153.107L238.178 151.378L238.716 149.649L238.978 147.885L237.204 147.611L235.489 146.908L233.644 146.784L231.887 146.266L230.084 145.943L228.313 145.495L226.557 144.966L224.75 144.668L222.969 144.256L221.18 143.883L219.455 143.216L217.659 142.868L215.874 142.481L214.046 142.268L212.279 141.795L210.536 141.21L208.705 141.007L206.976 140.375L205.142 140.191L203.427 139.495L201.593 139.307L199.808 138.909L198.061 138.334L196.258 138.014L194.459 137.677L192.716 137.095L190.878 136.91L189.089 136.498L187.255 135.777Z" fill="#EF457E"></path><path d="M256.844 86.7411L269.833 89.8158C274.827 90.9982 279.906 92.216 284.316 94.8398C289.126 97.7015 293.05 102.445 293.879 107.977C288.446 103.695 281.815 101.202 275.107 99.5017C269.737 98.1383 264.24 97.3714 258.852 96.1074C257.237 95.7239 255.169 95.4754 254.723 93.5687C254.538 92.7841 256.66 86.6985 256.844 86.7411Z" fill="#EF457E"></path><path d="M219.303 79.9666C223.04 80.5631 229.27 82.6117 233.053 82.5159L229.27 88.9814C229.119 89.2838 228.907 89.5511 228.647 89.7661C227.977 90.2454 227.06 89.9294 226.288 89.6418C222.505 88.2216 218.453 87.9446 214.461 87.6854C212.113 87.5328 205.291 88.0973 203.754 86.0238C199.308 80.0376 217.11 79.6186 219.303 79.9666Z" fill="#0099F5"></path><path d="M227.877 217.116L225.972 216.804L224.187 216.57L220.613 216.197L218.647 216.108L216.823 215.707L215.123 215.263L213.235 215.1L211.51 214.407L209.696 214.216L207.904 213.608L206.13 213.182L204.32 212.664L202.591 212.06L200.877 211.414L199.187 210.86L197.388 210.409L195.592 209.845L193.779 209.153L192.199 208.311L190.609 207.718L188.753 207.349L185.448 205.776L183.567 205.432L181.8 204.739L180.167 203.955L178.534 203.276L176.788 202.73L175.127 202.122L173.281 201.743L171.546 200.951L169.909 200.365L168.167 199.996L166.282 199.559L164.54 198.987L162.769 198.448L161.065 197.844L159.329 197.354L157.438 196.853L155.865 196.161L154.038 195.948L152.217 195.234L150.513 194.631L148.792 194.077L147.11 193.573L145.218 193.299L143.468 192.543L141.775 192.074L139.937 191.659L138.088 191.105L136.384 190.399L134.727 189.685L133.034 189.202L131.213 188.78L129.29 188.211L127.731 187.427L125.914 187.029L124.186 186.397L122.465 185.822L120.729 185.293L117.159 184.047L115.512 183.322L113.801 182.769L112.012 182.154L110.248 181.465L108.619 180.706L106.897 180.12L105.013 179.538L103.377 178.746L101.599 178.121L99.941 177.389L98.0779 176.811L96.4451 176.019L94.6281 175.38L92.8819 174.528L91.2986 173.569L89.7259 172.717L87.9195 171.989L86.2088 171.002L84.7495 169.905L81.459 167.938L80.074 166.756L78.4837 165.694L77.1377 164.299L75.7776 163.074L74.4175 161.76L71.6618 159.197L70.245 157.741L69.2285 156.267L67.8436 154.971L66.7066 153.594L65.2544 152.451L63.8907 151.211L62.4739 150.057L61.1705 148.879L59.7501 147.909L58.174 146.969L56.6792 145.953L55.1951 144.895L53.6544 143.855L50.8279 141.55L48.051 139.022L47.0486 137.35L45.986 135.777L45.0438 134.002L44.4736 132.181L44.0698 130.448L43.4322 128.637L43.2693 126.613L43.2728 124.675L43.5314 122.346L45.9293 121.678L47.7428 121.458L49.4465 121.348L50.5977 121.092L50.9979 120.038L51.2423 118.298L51.6815 116.615L52.0817 114.939L52.5245 113.267L52.861 111.495L53.3462 109.858L53.6933 108.222L53.959 106.382L54.2069 105.566L52.9247 105.328L51.7063 103.262L52.1986 100.932L52.8326 98.9228L53.6827 97.3215L54.0334 95.3722L54.8126 93.2597L56.5234 92.2513L58.5813 92.5993L60.416 92.7661L62.1551 93.0715L64.0253 93.2668L65.7042 93.6644L67.5779 93.778L69.2816 94.1757L70.9889 94.3497L72.9299 94.4597L74.6229 94.8645L76.4364 95.042L78.1047 95.3687L79.9572 95.3225L81.7777 95.8196L83.5027 96.0717L85.2276 96.2954L88.589 96.4125L90.236 96.4409L91.9574 96.338L93.6044 96.3451L95.1416 96.1143L96.8914 95.4929L98.7651 95.2515L100.515 94.8823L102.35 94.4597L104.135 94.2041L106.005 93.8384L107.705 93.707L109.458 93.0395L111.332 92.9898L113.014 92.4608L114.955 91.9921L116.751 91.9034L118.437 91.6655L120.222 91.0654L122.086 90.7139L123.871 90.5293L125.585 90.2169L127.377 89.6878L129.301 89.3221L131.075 89.2547L132.796 88.9209L134.571 88.5552L136.292 88.1824L138.095 87.5611L139.962 87.4403L141.712 86.993L145.303 86.3468L147.138 85.9527L148.912 85.7503L154.215 84.6141L156.035 84.2058L157.955 83.9076L159.747 83.8401L161.504 83.5525L163.36 83.1797L165.184 82.9986L167.019 82.7572L168.847 82.601L170.703 82.395L172.569 82.4234L174.33 82.3276L176.218 82.0684L178.081 82.0151L179.944 82.0719L183.677 82.0932L185.547 82.2814L187.304 82.5335L189.121 82.5193L191.076 82.6968L192.858 83.0306L194.654 83.2578L196.435 83.4424L198.355 83.5419L200.204 83.8472L202.003 84.2236L203.796 84.5325L205.556 84.923L207.313 85.2958L210.802 86.1231L212.544 86.3432L214.45 86.5634L216.164 87.0072L218.013 87.3338L219.674 87.8451L221.389 88.0617L223.273 88.2534L225.008 88.8712L226.748 89.1233L228.487 89.457L230.414 89.702L232.05 90.2275L233.863 90.4015L235.666 90.7956L237.363 91.2572L239.145 91.5412L240.905 91.9176L244.429 92.6348L246.105 92.9543L248.007 92.9614L249.746 93.5792L251.545 93.6857L253.298 94.2361L255.052 94.4491L258.686 95.0704L260.372 95.5285L262.1 95.7486L264.02 96.0433L265.692 96.5368L267.562 96.8244L269.212 97.3676L271.001 97.6233L272.687 98.0316L274.582 98.1985L276.25 98.6529L278.156 98.8162L280.047 99.4056L281.942 99.9702L283.727 100.744L287.075 102.445L288.895 103.325L290.432 104.419L292.051 105.555L293.436 106.784L295.026 107.984L296.142 109.56L297.587 110.771L298.763 112.34L299.982 113.782L300.895 115.241L303.29 117.943L304.292 119.42L305.259 120.901L306.293 122.243L307.586 123.588L308.656 125.055L309.623 126.5L311.879 129.198L313.091 130.576L314.146 132.007L315.194 133.395L316.399 134.797L317.249 136.338L318.414 137.46L319.99 138.273L321.57 139.186L323.426 139.924L324.953 140.897L326.702 141.568L328.399 142.388L330.046 143.255L331.806 143.933L333.599 144.742L335.352 145.751L336.829 146.922L338.005 148.694L338.228 150.832L337.806 152.827L337.466 154.641L337.257 156.456L337.19 158.405L336.935 160.368L336.517 162.197L336.202 164.039L334.456 163.738L334.789 161.824L335.2 160.017L335.426 158.22L335.497 156.289L335.72 154.343L336.071 152.479L336.436 150.739L336.287 149.312L335.511 148.14L334.307 147.189L332.763 146.308L331.105 145.563L329.267 144.852L327.602 143.972L325.969 143.184L324.152 142.491L322.548 141.469L320.745 140.759L319.123 139.825L317.376 138.919L315.828 137.432L314.936 135.816L313.802 134.488L312.729 133.068L311.691 131.662L310.533 130.356L308.178 127.526L307.197 126.059L306.194 124.685L304.923 123.368L303.796 121.902L302.819 120.403L301.859 118.99L299.433 116.246L298.515 114.783L297.364 113.427L296.294 111.999L294.835 110.774L293.741 109.237L292.288 108.136L290.918 106.919L287.932 104.817L286.299 104.039L284.602 103.187L282.945 102.338L281.291 101.625L279.534 101.106L277.812 100.567L275.861 100.386L274.2 99.9347L272.34 99.7713L270.629 99.3595L268.734 99.0754L267.084 98.5322L265.256 98.2588L263.577 97.7653L261.856 97.5061L259.964 97.2576L258.264 96.7924L254.779 96.2031L252.845 95.9545L251.223 95.4432L249.391 95.3367L247.698 94.7367L245.853 94.7154L244.086 94.3781L238.797 93.281L236.945 92.9827L235.224 92.5141L233.541 92.1448L231.692 91.9779L229.953 91.4205L228.182 91.2075L226.432 90.8702L224.498 90.5755L222.88 89.9967L221.19 89.8263L219.228 89.5671L217.549 89.0487L215.76 88.7327L214.071 88.2996L212.335 88.1043L210.437 87.8593L206.927 87.0285L205.184 86.6592L203.431 86.2687L201.674 85.9669L199.86 85.587L198.118 85.2994L196.276 85.2106L194.448 85.0189L192.56 84.781L190.793 84.4508L189.05 84.2946L187.184 84.3088L185.317 84.0389L183.542 83.865L179.915 83.8472L178.081 83.7904L176.317 83.8437L174.464 84.0957L172.601 84.2023L170.788 84.1703L169.02 84.3691L167.189 84.5218L165.39 84.7597L163.58 84.9443L161.823 85.2994L159.871 85.6118L158.076 85.6793L156.34 85.9562L154.59 86.3503L152.795 86.7231L149.153 87.5078L147.382 87.7102L145.643 88.0865L142.062 88.7327L140.16 89.205L138.449 89.315L136.717 89.908L134.936 90.295L133.144 90.6607L131.21 91.0264L129.435 91.0938L127.756 91.4205L125.946 91.9566L124.087 92.2904L122.305 92.4785L120.612 92.7981L118.767 93.4088L116.879 93.6751L115.129 93.7603L113.468 94.1757L111.626 94.7544L109.805 94.8077L108.098 95.461L106.193 95.603L104.407 95.9581L102.64 96.2137L100.897 96.6149L99.0272 97.009L97.3058 97.2327L95.4888 97.8576L93.7319 98.1203L91.9786 98.1132L90.2749 98.2162L88.5429 98.1878L85.0399 98.0635L83.2583 97.8292L81.3633 97.5487L79.7411 97.1049L77.9559 97.1475L76.1389 96.7924L74.2723 96.6078L72.5969 96.2066L70.833 96.1178L68.9345 95.919L67.2521 95.5249L65.3748 95.4077L63.6747 95.0065L61.8789 94.8254L60.1468 94.5201L58.3192 94.3568L56.8634 94.1082L56.2542 94.4704L55.7229 95.9119L55.3829 97.9038L54.4372 99.6861L53.9023 101.415L53.5835 102.949L54.0405 103.73L56.4844 104.185L55.6698 106.837L55.4325 108.559L55.0535 110.331L54.5682 111.96L54.2424 113.689L53.7996 115.372L53.3994 117.045L52.9672 118.699L52.7264 120.482L51.9117 122.615L49.6307 123.116L47.881 123.23L46.2127 123.432L45.1607 123.73L45.0403 124.824V126.578L45.1784 128.264L45.7841 129.997L46.1914 131.744L46.7086 133.388L47.5232 134.89L48.5539 136.413L49.4394 137.886L51.9967 140.215L54.7382 142.452L56.2011 143.436L57.6887 144.497L59.1445 145.484L60.7277 146.425L62.311 147.522L63.6428 148.722L65.0631 149.88L66.4197 151.116L67.9498 152.316L69.1683 153.793L70.5744 155.096L71.6583 156.669L72.9051 157.933L75.6359 160.468L76.9854 161.774L78.3881 163.042L79.6242 164.32L81.1827 165.371L82.5499 166.535L85.7731 168.456L87.2253 169.546L88.7448 170.416L90.5193 171.133L92.1947 172.039L93.7638 172.987L95.3577 173.761L97.1677 174.4L98.7863 175.181L100.607 175.746L102.279 176.484L104.099 177.123L105.722 177.908L107.439 178.43L109.32 179.076L110.967 179.843L112.639 180.493L114.36 181.082L116.177 181.679L117.839 182.406L121.274 183.603L123.003 184.128L124.77 184.721L126.463 185.339L128.323 185.74L130.012 186.589L131.681 187.065L133.498 187.491L135.371 188.034L137.072 188.765L138.722 189.447L140.412 189.951L142.225 190.36L144.113 190.889L145.703 191.574L147.556 191.854L149.316 192.383L151.077 192.948L152.833 193.573L154.466 194.212L156.333 194.428L158.083 195.199L159.79 195.643L161.628 196.161L163.339 196.768L165.075 197.294L166.796 197.858L168.549 198.263L170.448 198.675L172.247 199.321L173.834 200.045L175.669 200.432L177.376 201.054L179.172 201.622L180.914 202.343L182.537 203.124L184.127 203.745L185.986 204.068L189.316 205.652L191.158 206.028L192.978 206.713L194.558 207.555L196.194 208.173L197.891 208.709L199.708 209.163L201.483 209.745L203.197 210.392L204.879 210.981L206.597 211.471L208.436 211.915L210.075 212.472L211.939 212.668L213.646 213.353L215.502 213.527L217.252 213.988L218.948 214.358L220.762 214.425L224.396 214.805L226.23 215.05L227.991 215.334L229.733 215.27L231.196 215.249L234.795 214.34L236.332 213.743L237.873 212.767L239.594 212.202L240.944 211.325L242.272 210.129L243.639 209.042L244.893 207.867L246.044 206.621L247.132 205.091L248.301 203.905L250.592 199.14L251.421 197.383L252.395 195.795L253.242 194.279L253.844 192.493L254.864 190.818L255.732 189.262L256.497 187.569L257.336 185.918L258.151 184.267L258.941 182.602L259.67 180.926L261.296 177.496L262.178 175.934L262.855 174.212L263.634 172.532L264.484 170.871L265.327 169.053L266.336 167.629L266.914 165.861L267.99 164.267L268.727 162.694L269.368 160.83L270.254 159.197L271.178 157.446L272.421 155.753L274.171 154.265L276.342 153.647L278.567 153.196L280.827 154.031L282.562 155.415L283.738 157.141L284.818 158.678L286.122 160.219L287.068 162.158L287.532 164.221L287.808 166.301L287.301 168.179L287.068 169.972L286.745 171.673L286.752 173.498L286.458 175.362L286.207 177.265L285.732 178.98L284.879 184.281L284.687 186.124L284.386 187.913L284.131 189.692L283.912 191.478L283.717 193.321L283.423 195.149L283.069 196.889L282.888 198.714L282.552 200.674L282.686 200.628L284.333 199.765L286.009 199.037L287.631 198.199L289.313 197.272L291.066 196.513L292.735 195.909L294.343 194.926L296.156 194.357L297.718 193.541L299.39 192.572L301.175 191.769L302.836 191.233L304.377 190.218L306.184 189.49L307.912 188.868L309.481 188.048L311.157 187.036L312.974 186.518L314.617 185.584L316.324 184.92L317.986 184.153L319.625 183.333L320.954 182.701L321.294 181.149L321.999 179.491L322.753 177.847L323.387 176.228L323.894 174.556L324.347 172.735L324.956 171.041L325.665 169.273L326.437 167.711L326.95 166.053L328.643 166.578L328.055 168.431L327.269 170.029L326.614 171.67L326.029 173.292L325.594 175.053L325.048 176.839L324.372 178.568L323.617 180.209L322.955 181.764L322.509 183.926L320.401 184.931L318.751 185.755L316.99 186.568L315.318 187.217L313.668 188.169L311.869 188.68L310.324 189.61L308.567 190.519L306.814 191.148L305.203 191.798L303.612 192.848L301.767 193.445L300.162 194.173L298.554 195.107L296.762 196.026L295.08 196.555L293.503 197.521L291.693 198.174L290.053 198.884L288.467 199.765L286.738 200.656L285.066 201.38L283.334 202.282L280.26 203.362L280.837 200.202L281.135 198.448L281.326 196.577L281.684 194.815L281.964 193.062L282.151 191.276L282.374 189.458L282.637 187.64L282.934 185.857L283.122 184.033L283.398 182.24L284.011 178.554L284.485 176.853L284.705 175.114L284.981 173.363L284.974 171.51L285.325 169.667L285.576 167.775L286.005 166.184L285.782 164.494L285.389 162.751L284.631 161.196L283.395 159.733L282.282 158.153L281.248 156.637L279.948 155.596L278.429 155.035L276.725 155.38L275.025 155.866L273.725 156.97L272.645 158.444L271.816 160.031L270.962 161.607L270.353 163.404L269.496 165.201L268.522 166.649L267.934 168.439L266.822 170.011L266.071 171.662L265.224 173.31L264.473 174.936L263.751 176.754L262.855 178.341L261.278 181.668L260.552 183.34L259.745 185.041L258.919 186.713L258.084 188.357L257.297 190.097L256.39 191.716L255.459 193.25L254.825 195.075L253.922 196.694L252.958 198.267L250.617 203.191L249.767 204.949L248.442 206.287L247.383 207.782L246.126 209.142L244.769 210.409L243.395 211.503L241.967 212.778L240.363 213.818L238.634 214.386L237.051 215.366L235.277 216.048L232.489 216.751L232.493 217.006L229.78 217.045L227.877 217.116Z" fill="#07122B"></path><path d="M204.277 127.071L203.434 125.509L205.195 124.572L206.902 124.029L208.471 123.375L210.054 122.338L211.854 121.795L213.455 120.968L215.123 120.24L218.491 118.82L220.114 118.092L221.81 117.219L223.5 116.597L225.147 115.88L226.858 115.106L228.501 114.51L230.109 113.601L233.453 112.131L235.135 111.353L238.493 110.025L240.112 109.251L241.837 108.371L243.551 107.803L245.17 107.16L246.81 106.269L248.577 105.733L250.132 104.934L251.814 104.039L253.578 103.517L255.126 102.715L256.901 101.855L258.59 101.312L259.497 100.872L258.47 100.684L256.582 100.258L254.935 99.7181L253.21 99.5441L251.311 99.2849L249.463 98.8943L247.759 98.3866L246.02 98.0671L244.146 97.7511L242.421 97.0623L240.675 96.7285L238.946 96.306L237.211 96.0504L235.266 95.8728L233.46 95.4042L231.777 94.8751L229.985 94.5733L228.214 94.1544L226.436 93.6893L224.708 93.2809L222.969 92.9721L221.042 92.7448L219.313 92.2619L217.563 91.8927L215.789 91.4489L214.043 91.1187L212.141 90.8417L210.419 90.3553L206.895 89.6665L205.06 89.4357L203.307 89.1162L201.423 88.9671L199.584 88.6049L197.884 88.1895L196.145 88.1327L194.197 88.0865L192.468 87.806L190.651 87.8451L188.831 87.6285L187.039 87.6463H187.021L185.129 87.5859L183.337 87.3977L181.573 87.3551L177.9 87.4829L176.09 87.38L174.362 87.5362L172.488 87.8309L168.794 88.0262L167.005 88.0404L165.266 88.2321L163.421 88.5907L161.558 88.7718L159.776 88.8676L158.065 89.1552L156.277 89.6523L154.428 90.0251L152.618 90.2701L150.818 90.4938L149.093 90.8382L147.298 91.3495L145.466 91.7223L143.699 91.9957L142.009 92.4501L140.203 93.0644L138.436 93.4514L136.728 93.9094L134.943 94.5769L133.062 94.7864L131.242 95.358L129.474 95.6349L127.728 96.2101L125.776 96.7214L123.995 96.867L122.245 97.3712L120.432 97.7795L118.646 98.1594L116.904 98.6884L113.21 99.7003L111.375 100.006L109.65 100.368L107.854 100.996L105.98 101.433L104.138 101.721L102.318 102.04L102.017 100.29L103.852 99.9701L105.676 99.6861L107.404 99.2778L109.232 98.6387L111.049 98.2623L112.873 97.957L116.415 96.9841L118.243 96.4303L120.056 96.0433L121.831 95.6456L123.761 95.1059L125.55 94.9603L127.243 94.4988L129.131 93.8916L130.902 93.6147L132.779 93.0324L134.529 92.8371L136.232 92.2051L138.035 91.7223L139.774 91.3388L141.521 90.7423L143.38 90.2488L145.172 89.9718L146.911 89.6168L148.711 89.102L150.57 88.7363L152.387 88.5126L154.162 88.2711L155.894 87.9161L157.729 87.4119L159.634 87.0959L161.448 87.0001L163.205 86.8261L165.036 86.471L166.945 86.2651L168.762 86.2544L172.343 86.0592L174.174 85.7716L176.062 85.5976L177.922 85.7077L181.563 85.5763L183.49 85.6295L185.282 85.8177L187.056 85.871L188.923 85.8532L190.736 86.0663L192.592 86.0272L194.42 86.3255L196.188 86.3574L198.129 86.4213L199.985 86.8758L201.71 87.2166L203.576 87.3587L205.351 87.6818L207.2 87.9161L210.862 88.6369L212.562 89.1162L214.354 89.3718L216.193 89.7198L217.957 90.1636L219.763 90.5435L221.449 91.0157L223.252 91.2181L225.09 91.5483L226.861 91.9673L228.643 92.4324L230.364 92.8407L232.245 93.1638L233.966 93.7035L235.638 94.1331L237.445 94.2893L239.325 94.5733L241.072 94.9994L242.998 95.3829L244.624 96.0326L246.324 96.3167L248.219 96.6717L249.93 97.183L251.644 97.5416L253.419 97.7795L255.303 97.9712L257.092 98.557L258.824 98.944L261.218 99.3808L261.516 101.863L259.192 102.985L257.503 103.528L255.92 104.302L254.159 105.197L252.484 105.69L250.95 106.507L249.165 107.409L247.497 107.916L245.875 108.79L244.128 109.482L242.46 110.032L240.902 110.838L239.177 111.662L235.805 112.997L234.175 113.75L230.867 115.205L229.178 116.15L227.495 116.764L225.866 117.503L224.134 118.255L222.473 118.866L220.857 119.7L219.196 120.446L215.821 121.873L214.191 122.583L212.442 123.475L210.809 123.965L209.226 124.984L207.472 125.708L205.811 126.241L204.277 127.071Z" fill="#07122B"></path><path d="M228.303 116.214L226.614 115.685L224.864 115.433L222.976 115.092L219.445 114.204L217.674 113.867L214.121 113.114L212.191 112.898L210.459 112.411L208.698 112.063L206.846 111.662L205.135 111.19L203.325 110.923L201.533 110.558L197.945 109.745L196.195 109.368L194.254 109.07L192.628 108.513L190.744 108.417L188.891 107.984L187.22 107.444L185.48 107.22L183.518 106.933L181.825 106.414L179.987 106.13L178.255 105.477L176.533 105.204L172.825 104.689L171.104 104.035L169.269 103.805L167.243 103.276L165.723 101.593L166.099 99.1108L167.827 97.8823L169.226 96.5935L170.71 95.649L172.039 94.5839L173.292 93.3554L174.72 92.0204L176.215 91.0085L177.883 89.8084L179.905 88.9989L181.97 88.445L184.021 88.2959L186.015 88.5586L187.928 88.6225L189.805 89.0948L191.583 89.6096L193.305 90.0144L195.083 90.2451L197.003 90.4475L198.763 91.0866L200.47 91.3352L202.376 91.502L204.168 92.0559L205.978 92.3506L207.735 92.7625L209.516 93.0501L211.408 93.4193L213.161 93.8951L214.9 94.2643L216.689 94.5129L218.612 94.7401L220.394 95.1981L222.165 95.6242L223.971 96.0041L225.647 96.4302L227.542 96.4444L229.344 97.016L231.137 97.2255L233.074 97.5663L234.746 98.1202L236.641 98.3794L238.288 98.9049L240.123 98.9936L241.972 99.5227L243.739 99.9452L245.482 100.332L247.242 100.595L249.215 100.787L250.922 101.277L252.764 101.532L254.599 101.969L256.359 102.505L255.849 104.202L254.11 103.677L252.396 103.268L250.497 102.999L248.811 102.516L247.005 102.356L245.131 102.072L243.342 101.678L241.504 101.234L239.836 100.758L237.969 100.669L236.177 100.094L234.271 99.8351L232.578 99.2741L230.86 98.9794L228.891 98.7345L227.262 98.2161L225.42 98.2054L223.553 97.7297L221.775 97.3569L219.969 96.9201L218.233 96.4763L216.466 96.2739L214.564 96.0076L212.718 95.6171L210.976 95.1413L209.208 94.7969L207.363 94.4951L205.606 94.0868L203.704 93.7708L202.032 93.2524L200.24 93.0927L198.331 92.8193L196.602 92.1908L194.877 92.0098L192.943 91.7541L191.112 91.3209L189.341 90.8097L187.68 90.3907L185.828 90.3268L183.972 90.0783L182.186 90.2096L180.426 90.6961L178.744 91.3742L177.224 92.4642L175.772 93.4513L174.518 94.6371L173.179 95.9402L171.702 97.1225L170.246 98.0492L168.9 99.2954L167.739 100.123L167.601 101.028L168.203 101.692L169.658 102.072L171.529 102.296L173.264 102.956L176.799 103.446L178.793 103.783L180.44 104.405L182.282 104.699L183.968 105.218L185.714 105.463L187.684 105.729L189.398 106.283L191.063 106.67L192.961 106.752L194.746 107.366L196.539 107.625L198.327 108.008L201.905 108.822L203.654 109.177L205.553 109.461L207.296 109.943L209.056 110.323L210.905 110.693L212.594 111.168L214.436 111.367L218.024 112.127L219.852 112.479L223.373 113.363L225.147 113.679L227.07 113.97L228.831 114.52L228.303 116.214Z" fill="#07122B"></path><path d="M294.372 139.864L292.509 138.937L290.975 138.036L289.519 137.233L287.777 136.708L286.186 135.717L284.688 134.908L282.967 134.18L281.514 133.306L279.8 132.681L278.079 131.78L276.478 130.423L275.178 128.886L274.282 127.324L273.166 125.697L272.656 123.851L271.827 122.108L271.37 120.386L270.662 118.785L269.787 117.009L269.326 115.358L268.331 113.81L267.704 111.982L267.06 110.32L266.206 108.509L266.146 105.946L267.775 103.769L270.254 103.361L272.571 103.677L274.717 103.936L276.598 104.046L278.49 104.341L280.261 104.998L281.947 105.467L283.824 105.868L285.542 106.723L287.274 107.473L288.825 108.556L290.309 109.468L292.038 110.313L293.639 111.403L294.9 112.823L297.652 115.213L299.033 116.605L300.096 118.025L301.381 119.477L302.338 121.014L303.4 122.577L304.261 124.157L305.076 125.452L306.17 126.663L307.374 128.222L308.345 129.795L309.408 131.29L310.52 132.77L311.657 134.247L312.744 135.745L315.241 138.497L311.522 138.696L309.588 138.934L307.732 138.959L305.876 139.065L303.953 139.246H302.122L300.234 139.449L298.417 139.505L296.49 139.814L294.372 139.864ZM293.377 137.379L294.765 138.068L296.387 138.025L298.311 137.716L300.152 137.659L302.037 137.453H303.921L305.749 137.276L307.697 137.166L309.524 137.141L311.426 136.906L311.349 136.811L310.247 135.291L309.11 133.846L307.98 132.344L306.84 130.757L305.88 129.195L304.782 127.775L303.606 126.457L302.706 125.037L301.852 123.475L300.825 121.977L299.901 120.485L298.682 119.118L297.62 117.698L296.394 116.477L293.585 114.03L292.463 112.742L291.095 111.811L289.406 110.995L287.823 110.018L286.406 109.021L284.773 108.311L283.236 107.544L281.5 107.171L279.68 106.663L278.043 106.056L276.371 105.793L274.537 105.69L272.348 105.424L270.283 105.14L268.781 105.392L267.945 106.503L267.98 108.073L268.724 109.624L269.401 111.371L269.964 113.011L270.991 114.606L271.498 116.431L272.305 118.046L273.081 119.857L273.531 121.565L274.356 123.294L274.806 124.931L275.815 126.4L276.687 127.92L277.788 129.205L279.081 130.271L280.583 131.059L282.354 131.716L283.827 132.603L285.489 133.313L287.1 134.183L288.517 135.064L290.214 135.579L291.853 136.484L293.377 137.379Z" fill="#07122B"></path><path d="M325.959 191.326L324.255 188.94L324.142 186.848L324.216 185.038L324.312 183.305L324.263 181.53L324.397 179.719L324.588 177.809L325.006 176.119L325.268 174.361L325.623 172.646L325.906 170.967L326.012 169.096L326.636 167.409L326.806 165.588L327.298 163.77L327.95 162.172L328.414 160.397L329.048 158.828L329.423 157.052L330.093 155.245L330.96 153.74L331.69 152.131L332.625 150.356L335.062 148.836L336.55 151.247L336.67 153.232L336.737 155.021L336.656 156.772L336.762 158.547L336.698 160.51L336.344 162.254L335.962 164.004L335.657 165.637V167.462L335.193 169.255L334.839 171.119L334.258 172.696L334.038 174.436L333.659 176.211L333.181 177.986L332.034 181.341L330.907 184.746L330.238 186.387L329.487 188.126L328.297 189.795L325.959 191.326ZM325.995 188.329L326.412 188.908L327.057 188.485L327.943 187.242L328.612 185.698L329.26 184.1L330.362 180.77L331.502 177.436L331.949 175.778L332.303 174.102L332.533 172.273L333.16 170.576L333.468 168.84L333.886 167.228L333.914 165.389L334.237 163.649L334.619 161.874L334.949 160.219L334.995 158.558L334.885 156.782L334.97 155.007L334.903 153.289L334.811 151.773L334.495 151.254L333.975 151.581L333.266 152.916L332.512 154.574L331.662 156.047L331.109 157.578L330.716 159.424L330.075 161.015L329.607 162.79L328.952 164.388L328.534 165.971L328.375 167.8L327.762 169.465L327.656 171.215L327.358 172.991L327.004 174.695L326.731 176.502L326.32 178.167L326.157 179.864L326.03 181.565L326.08 183.34L325.984 185.137L325.913 186.852L325.995 188.329Z" fill="#07122B"></path><path d="M262.002 234.965L260.231 233.612L259.023 231.837L258.8 229.934L258.155 228.205L258.067 226.234L258.13 224.494L257.843 222.673L257.819 220.809L258.098 218.998L258.198 217.223L258.382 215.512L258.318 213.662L258.718 211.886L258.754 210.111L258.924 208.268L259.214 206.493L259.568 204.743L259.791 202.939L260.146 201.125L260.585 199.438L260.872 197.549L261.431 195.941L261.647 194.184L262.002 192.39L262.455 190.615L263.518 187.21L264.485 183.766L265.03 182.066L265.572 180.265L266.28 178.65L267.577 175.195L268.452 173.626L270.223 170.555L271.037 168.861L272.072 167.299L273.294 165.801L275.047 164.682L277.236 164.221L279.007 165.595L279.956 167.342L280.771 169.117L280.891 171.002L281.305 172.777L281.366 174.72L281.174 176.456L281.444 178.21L281.359 180.209L281.058 181.87L281.174 183.646L280.902 185.495L280.714 187.221L280.636 189.117L280.282 190.874L279.896 192.604L279.683 194.453L279.248 196.154L278.947 197.88L278.66 199.712L278.235 201.377L278.026 203.276L277.519 204.913L277.296 206.728L276.651 208.435L276.318 210.211L275.589 211.844L275.295 213.669L274.714 215.38L274.098 217.031L273.602 218.806L272.925 220.582L272.135 222.055L271.739 223.887L270.63 225.46L269.922 226.951L269.295 228.744L268.122 230.253L267.099 231.713L265.898 233.236L264.371 234.624L262.002 234.965ZM261.527 232.373L262.483 233.083L263.599 232.927L264.662 231.954L265.689 230.637L266.698 229.142L267.711 227.839L268.296 226.181L269.146 224.452L270.088 223.113L270.442 221.395L271.321 219.751L271.916 218.171L272.412 216.417L273.035 214.741L273.602 213.15L273.874 211.333L274.622 209.674L274.976 207.867L275.571 206.284L275.812 204.452L276.315 202.822L276.51 200.986L276.942 199.3L277.207 197.574L277.53 195.732L277.962 194.059L278.164 192.248L278.557 190.502L278.872 188.836L278.939 187.061L279.134 185.247L279.386 183.567L279.265 181.757L279.595 179.939L279.658 178.298L279.379 176.481L279.581 174.638L279.531 172.997L279.12 171.187L279.014 169.55L278.348 168.091L277.64 166.756L276.797 166.109L275.734 166.333L274.494 167.128L273.478 168.368L272.557 169.77L271.785 171.386L269.178 175.983L267.938 179.317L267.23 180.908L266.734 182.573L266.192 184.274L265.721 185.978L265.228 187.704L264.166 191.112L263.741 192.799L263.387 194.496L263.163 196.342L262.565 198.05L262.306 199.825L261.842 201.533L261.516 203.23L261.293 205.041L260.939 206.795L260.663 208.496L260.503 210.214L260.472 212.064L260.082 213.797L260.142 215.544L259.947 217.358L259.841 219.204L259.579 220.912L259.6 222.559L259.891 224.359L259.823 226.202L259.898 227.821L260.521 229.486L260.716 231.176L261.527 232.373Z" fill="#07122B"></path><path d="M268.774 223.198L267.056 222.762L267.523 220.93L268.15 219.172L268.862 217.599L269.794 214.095L270.431 212.526L270.697 210.736L271.207 208.876L271.919 207.278L272.369 205.63L272.748 203.901L273.162 202.179L273.417 200.368L273.807 198.561L274.115 196.768L274.32 194.826L274.756 192.951L275.263 191.219L275.475 189.433L276.003 185.715L276.194 183.915L276.279 181.984L276.548 180.17L276.669 178.376L276.647 176.523L276.711 174.673L276.63 172.916L276.293 171.375L275.358 170.26L276.711 169.117L277.93 170.569L278.394 172.756L278.482 174.663L278.418 176.544L278.443 178.426L278.305 180.393L278.039 182.197L277.958 184.079L277.76 185.936L277.232 189.664L276.984 191.645L276.463 193.427L276.059 195.171L275.865 197.042L275.542 198.92L275.153 200.713L274.894 202.552L274.473 204.299L274.083 206.078L273.562 207.938L272.854 209.536L272.418 211.148L272.153 212.991L271.458 214.709L270.506 218.267L269.78 219.872L269.206 221.487L268.774 223.198Z" fill="#07122B"></path><path d="M277.462 215.014L278.22 210.967L278.79 209.273L278.999 207.384L279.474 205.421L280.172 203.717L280.629 201.959L282.343 202.403L281.833 204.338L281.139 206.031L280.738 207.736L280.53 209.66L279.995 211.251L281.461 210.541L282.92 209.642L284.408 208.467L286.108 207.785L287.525 206.66L289.193 205.918L290.621 204.807L292.324 203.997L293.819 203.163L295.282 202.041L296.816 201.089L298.455 200.031L300.071 199.356L301.533 198.426L303.078 197.496L304.64 196.42L306.23 195.596L307.753 194.719L309.312 193.679L310.828 192.884L312.259 191.666L314.001 190.974L315.39 190.008L316.941 188.843L319.76 187.338L319.959 186.134L320.076 184.405L320.561 182.694L322.265 183.177L321.829 184.714L321.712 186.383L321.369 188.488L317.834 190.381L316.413 191.457L314.844 192.547L313.183 193.211L311.823 194.364L310.176 195.231L308.663 196.246L307.059 197.166L305.5 197.972L304.013 199.005L302.465 199.935L300.825 200.965L299.213 201.639L297.768 202.584L296.252 203.528L294.736 204.682L293.107 205.588L291.556 206.326L290.107 207.452L288.446 208.19L287.004 209.337L285.304 210.019L283.891 211.13L282.269 212.121L280.685 212.888L277.462 215.014Z" fill="#07122B"></path><path d="M198.437 280.099L197.976 279.141L199.57 278.37L200.987 277.11L202.556 276.283L203.973 275.036L205.57 274.142L207.037 273.19L208.429 271.972L209.909 270.911L211.436 269.771L213.041 268.965L214.475 267.917L215.98 266.87L217.436 265.713L218.998 264.772L220.479 263.781L221.952 262.645L223.461 261.725L224.807 260.422L226.493 259.613L227.874 258.512L229.309 257.277L232.401 255.352L233.864 254.344L235.344 253.147L236.924 252.295L238.352 251.226L239.885 250.225L241.341 249.093L242.843 248.116L244.306 246.909L245.875 246.036L247.306 245.006L248.712 243.785L250.263 242.702L251.864 241.864L253.331 240.901L254.754 239.648L256.285 238.75L257.631 237.582L259.15 236.424L260.733 235.448L262.285 234.638L263.595 233.325L265.274 232.526L266.634 231.308L268.26 230.484L269.574 229.167L271.292 228.386L272.702 227.324L274.111 226.192L275.634 225.024L277.221 224.168L278.666 223.177L280.09 221.871L281.666 221.015L283.097 219.953L284.571 218.732L286.147 217.912L287.589 216.744L289.129 215.852L290.567 214.656L292.108 213.751L293.571 212.579L295.137 211.702L296.557 210.665L297.945 209.394L299.447 208.364L300.984 207.274L302.561 206.465L303.967 205.247L305.511 204.317L306.974 203.269L308.493 202.13L310.098 201.313L311.561 200.298L314.447 198.146L315.843 196.886L317.518 196.041L319.006 195.05L320.437 193.974L321.829 192.831L323.31 191.727L325.513 190.296L324.981 190.083L323.37 189.571L321.893 188.911L320.356 188.425L320.674 187.409L322.3 187.928L323.777 188.588L325.357 189.085L327.811 190.079L323.915 192.6L322.484 193.669L321.092 194.812L319.619 195.92L318.025 196.978L316.449 197.77L315.099 198.984L312.181 201.164L310.612 202.247L309.018 203.06L307.604 204.129L306.074 205.219L304.555 206.135L303.103 207.384L301.505 208.205L300.053 209.238L298.576 210.25L297.209 211.507L295.682 212.614L294.127 213.484L292.678 214.652L291.141 215.551L289.7 216.751L288.159 217.646L286.685 218.831L285.113 219.652L283.756 220.791L282.205 221.935L280.653 222.776L279.297 224.033L277.749 225.091L276.176 225.943L274.767 227.03L273.35 228.166L271.784 229.33L270.19 230.055L268.89 231.358L267.24 232.196L265.866 233.421L264.219 234.209L262.919 235.508L261.24 236.385L259.727 237.319L258.304 238.409L256.865 239.645L255.335 240.539L253.947 241.775L252.378 242.794L250.784 243.628L249.346 244.64L247.947 245.854L246.42 246.952L244.865 247.818L243.448 248.993L241.94 249.973L240.484 251.106L238.961 252.1L237.462 253.211L235.893 254.06L234.484 255.21L232.985 256.243L229.904 258.161L228.551 259.332L227.007 260.547L225.42 261.306L224.063 262.602L222.533 263.54L221.081 264.658L219.565 265.67L218.013 266.607L216.614 267.722L215.091 268.784L213.558 269.899L211.953 270.701L210.536 271.77L209.066 272.824L207.646 274.063L206.116 275.054L204.54 275.938L203.109 277.195L201.54 278.019L200.169 279.261L198.437 280.099Z" fill="#07122B"></path><path d="M262.062 234.749L260.301 234.294L258.456 233.861L256.834 233.108L254.985 232.849L253.306 231.961L251.67 231.539L249.775 231.162L248.163 230.325L246.374 230.08L244.607 229.352L242.914 228.762L241.228 228.212L239.439 227.729L237.743 227.161L235.855 226.643L234.289 225.893L232.543 225.489L230.726 224.921L229.1 224.232L225.519 223.28L223.893 222.329L222.477 220.983L221.726 219.116L221.658 217.223L221.96 215.544L223.702 215.86L223.437 217.347L223.486 218.743L223.975 219.961L224.963 220.898L226.206 221.626L229.731 222.57L231.374 223.266L233.035 223.781L234.877 224.207L236.545 225.006L238.277 225.467L239.978 226.036L241.752 226.515L243.477 227.079L245.259 227.701L246.838 228.35L248.709 228.606L250.366 229.472L252.084 229.813L253.947 230.293L255.537 231.134L257.34 231.386L259.037 232.171L260.723 232.572L262.505 233.03L262.062 234.749Z" fill="#07122B"></path><path d="M244.412 154.18L242.666 153.718L240.919 153.36L239.088 153.065L237.246 152.678L232.001 151.233L230.152 150.874L228.448 150.356L224.786 149.653L223.096 149.078L221.396 148.684L219.522 148.392L217.794 147.718L216.026 147.381L214.284 146.933L212.474 146.582L210.703 146.145L208.875 145.651L207.246 145.115L205.358 144.995L203.633 144.253L201.89 144.032L199.992 143.688L198.341 142.967L196.521 142.843L194.76 142.179L193.046 141.902L191.094 141.536L189.366 140.929L187.676 140.397L185.99 139.96L184.06 139.722L182.342 139.175L180.645 138.732L178.882 138.462L176.905 138.11L175.24 137.478L173.523 137.07L171.737 136.598L170.037 136.204L168.139 135.966L164.576 135.028L161.111 133.967L159.394 133.537L157.523 133.2L155.869 132.696L153.999 132.55L152.235 131.893L148.555 131.19L146.933 130.544L145.158 130.235L143.331 129.777L141.659 129.237L139.852 128.957L138.103 128.549L136.25 128.215L134.454 127.725L132.772 127.185L131.033 126.88L129.067 126.486L127.47 125.854L125.635 125.658L123.892 124.948L122.189 124.622L120.347 124.288L118.601 123.858L116.769 123.507L115.009 123.035L113.139 122.601L111.548 121.984L109.749 121.859L107.907 121.345L106.069 120.883L104.408 120.269L102.655 119.896L100.905 119.452L99.1763 119.094L97.2389 118.834L95.5493 118.309L93.7146 117.975L92.018 117.276L90.2222 116.988L88.5114 116.519L86.6625 116.228L84.8561 115.752L83.1382 115.209L81.4629 114.776L79.6033 114.584L77.8394 113.991L75.9586 113.643L74.308 113.047L72.4804 112.72L70.8086 112.206L68.9242 111.957L67.1745 111.439L65.4779 110.902L63.6431 110.594L61.9253 110.111L58.2345 109.39L56.5485 108.754L54.9192 108.286L53.0739 108.144L51.2604 107.6L49.5106 107.174L49.9321 105.449L51.7421 105.893L53.3997 106.39L55.2345 106.532L57.1401 107.082L58.7835 107.703L62.3645 108.392L64.0753 108.872L65.9525 109.191L67.6916 109.738L69.3599 110.235L71.2549 110.487L72.9479 111.009L74.8393 111.35L76.4899 111.95L78.3388 112.287L79.9788 112.838L81.8383 113.04L83.6483 113.509L85.3697 114.055L87.0663 114.499L88.9258 114.794L90.6401 115.259L92.4997 115.557L94.214 116.26L96.0204 116.594L97.6887 117.116L99.4986 117.347L101.323 117.727L103.073 118.17L104.96 118.579L106.636 119.2L108.357 119.626L110.054 120.098L111.938 120.233L113.716 120.922L115.43 121.313L117.194 121.781L118.997 122.129L120.743 122.555L122.511 122.875L124.48 123.273L126.071 123.919L127.895 124.114L129.641 124.803L131.352 125.133L133.254 125.474L134.975 126.028L136.679 126.493L138.482 126.816L140.224 127.221L142.133 127.526L143.848 128.076L145.555 128.506L147.415 128.822L149.129 129.507L152.781 130.2L154.385 130.8L156.199 130.942L157.984 131.485L159.794 131.808L161.6 132.262L165.082 133.328L168.535 134.233L170.388 134.464L172.166 134.876L173.955 135.348L175.814 135.795L177.451 136.42L179.165 136.708L181.046 137.002L182.856 137.478L184.517 138.004L186.376 138.227L188.183 138.696L189.925 139.243L191.615 139.839L193.344 140.152L195.221 140.454L196.9 141.089L198.766 141.217L200.509 141.977L202.181 142.282L204.101 142.52L205.776 143.244L207.582 143.358L209.406 143.958L211.142 144.427L212.874 144.853L214.695 145.208L216.437 145.651L218.361 146.031L219.983 146.67L221.761 146.947L223.624 147.384L225.296 147.952L228.916 148.645L230.619 149.159L232.436 149.511L237.693 150.96L239.428 151.322L241.256 151.616L243.094 151.996L244.862 152.461L244.412 154.18Z" fill="#07122B"></path><path d="M242.662 160.336L240.919 159.868L239.191 159.484L237.254 159.2L235.571 158.65L233.74 158.291L232.054 157.574L230.262 157.258L228.554 156.768L226.716 156.452L224.917 155.955L223.206 155.387L221.538 154.929L219.678 154.712L217.921 154.098L216.048 153.725L214.404 153.108L212.58 152.756L210.915 152.22L209.038 151.943L207.295 151.4L205.606 150.842L203.778 150.509L202.064 150.004L198.387 149.237L196.712 148.577L195.086 148.087L193.248 147.92L191.438 147.352L189.72 146.908L187.815 146.507L186.189 145.886L184.425 145.595L182.647 145.193L180.855 144.718L179.126 144.192L177.224 143.795L175.598 143.141L173.827 142.793L172.116 142.314L170.278 142.005L168.454 141.515L166.747 140.915L165.1 140.411L163.237 140.198L161.473 139.754L159.684 139.356L157.924 138.888L156.054 138.415L154.382 137.741L152.774 137.233L150.904 137.095L149.129 136.424L147.411 136.037L145.559 135.674L143.915 134.979L142.123 134.858L140.281 134.336L138.538 133.796L135.06 132.898L133.183 132.514L131.501 131.936L129.73 131.542L127.976 131.055L124.392 130.168L122.709 129.596L119.199 128.794L115.654 127.952L113.794 127.53L110.39 126.372L108.612 125.996L106.919 125.541L105.024 125.332L103.338 124.59L101.546 124.409L99.7998 123.805L97.965 123.525L96.2295 123.042L94.4124 122.616L92.7016 122.083L90.9625 121.664L89.0534 121.256L87.4276 120.599L85.7204 120.262L83.7688 119.889L82.1465 119.246L80.2799 118.891L78.6364 118.259L76.9256 117.901L75.0732 117.45L73.4155 116.935L71.5737 116.715L69.6788 116.257L68.0246 115.6L66.3387 115.167L64.5287 114.797L62.7896 114.346L60.9938 113.977L57.3916 113.086L54.0303 111.95L52.1707 111.772L50.4068 111.052L48.7067 110.618L49.1388 108.9L51.0196 109.383L52.5993 110.029L54.4022 110.203L57.9194 111.392L61.4011 112.252L63.2111 112.621L64.9502 113.072L66.7566 113.441L68.6268 113.927L70.2703 114.584L71.9279 114.971L73.8618 115.213L75.5726 115.749L77.3153 116.171L79.2031 116.576L80.836 117.205L82.7203 117.563L84.3426 118.206L86.0498 118.518L88.0121 118.92L89.6414 119.58L91.3451 119.931L93.2011 120.379L94.9083 120.911L96.6864 121.323L98.3865 121.799L100.299 122.097L101.929 122.662L103.795 122.85L105.488 123.596L107.312 123.809L109.048 124.274L110.907 124.671L114.318 125.832L117.828 126.638L121.37 127.476L123.23 127.902L124.923 128.474L128.423 129.34L130.176 129.823L132.032 130.239L133.7 130.814L135.475 131.172L139.041 132.096L140.784 132.632L142.428 133.1L144.33 133.228L146.076 133.967L147.776 134.3L149.696 134.741L151.29 135.344L153.107 135.479L155.009 136.083L156.656 136.743L158.363 137.169L160.12 137.634L161.88 138.025L163.609 138.462L165.539 138.689L167.317 139.236L169.01 139.829L170.693 140.279L172.549 140.592L174.266 141.071L176.183 141.462L177.808 142.119L179.597 142.481L181.34 143.01L183.068 143.468L184.786 143.858L186.653 144.164L188.381 144.824L190.138 145.186L191.944 145.651L193.595 146.17L195.426 146.337L197.325 146.912L198.961 147.555L202.531 148.293L204.232 148.794L206.102 149.138L207.837 149.71L209.495 150.228L211.386 150.505L213.069 151.048L214.957 151.418L216.6 152.039L218.446 152.401L220.078 152.973L221.938 153.2L223.741 153.693L225.452 154.261L227.141 154.727L228.994 155.05L230.701 155.536L232.557 155.859L234.264 156.587L236.067 156.946L237.728 157.489L239.538 157.745L241.359 158.149L243.119 158.622L242.662 160.336Z" fill="#07122B"></path><path d="M241.128 166.291L239.481 165.701L237.643 165.399L235.911 164.892L234.097 164.451L232.387 163.894L230.651 163.454L228.742 163.024L227.123 162.35L225.42 161.995L223.475 161.6L221.856 160.936L219.993 160.56L218.353 159.91L216.643 159.534L214.794 159.062L213.136 158.526L211.298 158.281L209.403 157.805L207.756 157.127L206.073 156.676L204.27 156.285L202.535 155.817L200.739 155.426L197.144 154.492L193.793 153.321L191.934 153.118L190.177 152.38L188.526 151.939L186.603 151.652L184.949 151.087L183.128 150.803L181.389 150.157L179.565 149.749L177.883 149.156L176.193 148.726L174.326 148.396L172.513 147.856L170.845 147.21L169.184 146.752L167.338 146.461L165.574 146.01L163.807 145.527L162.054 145.069L160.233 144.636L158.547 144.086L156.691 143.699L154.97 143.092L153.33 142.484L151.52 142.232L149.773 141.611L148.045 141.256L146.171 140.826L144.471 140.265L142.736 139.836L140.897 139.346L139.176 138.742L137.554 138.227L135.673 138.046L133.757 137.546L132.173 136.811L130.487 136.473L128.649 136.054L126.928 135.575L125.082 135.22L123.396 134.51L121.601 134.194L119.907 133.498L118.073 133.189L116.401 132.649L114.584 132.34L112.824 131.882L111.021 131.393L109.285 130.842L107.599 130.256L105.871 129.926L104.032 129.511L100.512 128.545L98.7902 128.02L97.0475 127.657L95.2128 127.235L93.3674 126.713L91.7062 126.042L90.0733 125.559L88.2244 125.332L86.4711 124.7L84.7143 124.338L82.8654 123.872L81.144 123.262L79.4368 122.726L77.7118 122.243L75.994 121.827L74.1486 121.469L72.3988 120.968L70.6668 120.539L68.8958 120.081L67.0788 119.58L65.3503 118.994L63.6749 118.483L61.8437 118.103L60.1365 117.574L58.3584 117.158L56.6051 116.672L54.8023 116.221L53.095 115.66L51.3843 115.213L49.6239 114.847L47.8529 114.531L48.1646 112.784L49.9604 113.104L51.8128 113.491L53.6228 113.967L55.3229 114.524L57.055 114.957L58.8118 115.444L60.6288 115.87L62.3254 116.395L64.1496 116.775L65.8922 117.304L67.6207 117.893L69.3492 118.366L71.0989 118.817L72.8558 119.25L74.5984 119.75L76.3907 120.098L78.1581 120.524L79.9433 121.025L81.7036 121.579L83.4144 122.186L85.1217 122.608L87.0131 123.01L88.6353 123.596L90.5055 123.837L92.3296 124.38L93.9837 125.048L95.6697 125.52L97.423 125.921L99.2683 126.308L101.011 126.841L104.475 127.792L106.232 128.186L108.12 128.559L109.845 129.159L111.538 129.695L113.277 130.168L114.991 130.611L116.883 130.938L118.554 131.478L120.393 131.78L122.096 132.475L123.899 132.795L125.599 133.509L127.367 133.853L129.102 134.336L130.859 134.737L132.726 135.113L134.423 135.898L136.038 136.31L137.904 136.473L139.735 137.059L141.45 137.659L143.175 138.117L144.992 138.568L146.685 139.126L148.42 139.523L150.305 139.917L151.941 140.5L153.765 140.752L155.568 141.423L157.222 142.001L159.046 142.381L160.743 142.935L162.482 143.347L164.264 143.812L166.028 144.295L167.738 144.732L169.601 145.027L171.443 145.538L173.119 146.188L174.78 146.678L176.593 146.997L178.435 147.466L180.103 148.059L181.949 148.471L183.578 149.078L185.448 149.379L187.095 149.944L188.93 150.21L190.807 150.718L192.38 151.382L194.183 151.577L197.693 152.802L201.164 153.704L202.974 154.095L204.71 154.567L206.513 154.954L208.379 155.465L210.016 156.14L211.67 156.548L213.604 156.811L215.311 157.365L217.05 157.805L218.938 158.235L220.567 158.881L222.444 159.261L224.063 159.925L225.77 160.255L227.729 160.677L229.351 161.355L231.055 161.725L232.907 162.197L234.611 162.751L236.389 163.184L238.086 163.677L239.998 164.001L241.723 164.618L241.128 166.291Z" fill="#07122B"></path><path d="M240.172 173.076L238.465 172.526L236.719 172.131L234.88 171.677L233.035 171.127L231.377 170.427L229.741 169.912L227.885 169.657L226.135 168.993L224.375 168.602L222.526 168.105L220.808 167.466L219.104 166.902L217.376 166.387L215.658 165.946L213.809 165.552L212.059 165.023L210.324 164.565L208.549 164.075L206.732 163.546L205.007 162.932L203.332 162.392L201.504 161.98L199.793 161.423L198.051 160.986L196.262 160.464L194.456 159.982L192.752 159.392L191.041 158.913L189.281 158.519L187.375 158.135L185.65 157.521L183.943 156.885L182.264 156.349L180.532 155.977L178.651 155.653L176.895 154.958L175.18 154.443L173.438 153.949L171.73 153.438L169.8 153.101L168.156 152.472L166.375 152.114L164.533 151.606L162.847 150.977L161.126 150.473L159.376 149.994L155.774 149.11L153.985 148.499L152.38 147.828L150.595 147.512L148.828 147.043L147.004 146.582L145.208 145.982L143.561 145.297L141.893 144.839L140.065 144.515L138.184 144.043L136.491 143.39L134.802 142.815L133.123 142.35L131.214 142.083L129.464 141.547L127.657 141.05L126.003 140.439L124.158 140.063L122.394 139.456L120.79 138.827L118.958 138.597L117.212 137.915L115.491 137.542L113.617 137.088L110.21 135.959L108.368 135.611L106.685 134.886L104.836 134.563L101.422 133.385L99.6368 132.969L97.8835 132.454L96.0665 131.975L94.4124 131.375L92.5847 131.041L90.9129 130.331L89.0711 130.083L87.3815 129.308L85.5751 129.021L83.7333 128.478L82.0934 127.807L80.3826 127.388L76.7839 126.532L75.059 126.021L73.2667 125.602L71.4108 125.073L69.7744 124.395L68.0671 123.968L66.2855 123.471L62.5948 122.538L61.0115 121.785L55.6029 120.588L53.9913 119.924L52.1849 119.587L50.3785 119.04L48.6889 118.405L46.9711 117.858L47.5059 116.164L49.2911 116.733L50.9771 117.372L52.6453 117.872L54.4942 118.213L56.205 118.92L61.5888 120.095L63.2713 120.897L66.7318 121.757L68.517 122.254L70.3907 122.729L72.0377 123.415L73.7272 123.887L75.5372 124.313L77.2656 124.824L82.7026 126.138L84.3602 126.816L86.0143 127.299L87.8987 127.594L89.567 128.361L91.384 128.602L93.0983 129.33L94.9437 129.681L96.6297 130.288L98.3582 130.743L100.108 131.258L101.953 131.691L105.343 132.863L107.188 133.171L108.888 133.899L110.702 134.251L114.145 135.391L115.884 135.81L117.786 136.236L119.394 136.86L121.229 137.091L123.021 137.794L124.679 138.366L126.549 138.749L128.231 139.371L129.956 139.843L131.66 140.365L133.537 140.62L135.344 141.125L137.111 141.725L138.769 142.367L140.462 142.786L142.321 143.117L144.188 143.635L145.856 144.331L147.528 144.885L149.271 145.325L151.01 145.787L152.88 146.113L154.64 146.848L156.309 147.416L159.819 148.275L161.607 148.765L163.435 149.302L165.114 149.93L166.811 150.392L168.716 150.786L170.349 151.411L172.184 151.719L173.933 152.245L175.676 152.738L177.511 153.292L179.13 153.935L180.886 154.237L182.757 154.645L184.542 155.213L186.256 155.852L187.907 156.442L189.642 156.779L191.495 157.198L193.305 157.706L195.005 158.291L196.74 158.753L198.515 159.275L200.314 159.726L202.011 160.28L203.835 160.688L205.578 161.249L207.302 161.867L209.031 162.367L210.781 162.85L212.541 163.315L214.284 163.845L216.079 164.221L217.85 164.679L219.632 165.208L221.396 165.79L223.103 166.429L224.81 166.88L226.702 167.31L228.324 167.928L230.198 168.197L232.025 168.773L233.676 169.469L235.362 169.969L237.122 170.402L238.971 170.821L240.714 171.386L240.172 173.076Z" fill="#07122B"></path><path d="M322.215 159.044L320.278 158.543L318.372 158.259L316.389 157.816L314.582 157.169L312.808 156.456L310.899 155.856L309.237 154.815L307.438 154.105L305.04 152.529L305.047 152.518L304.261 152.099L302.667 151.187L300.999 150.352L299.483 149.475L297.669 148.826L296.185 147.963L294.397 147.537L292.781 146.649L291.017 146.283L289.204 145.715L287.564 145.059L285.843 144.7L284.065 144.398L282.272 144.128L280.484 143.812L278.698 143.656L276.775 143.447L275.008 143.07L273.219 142.953L271.345 142.786L267.495 142.527L265.774 142.065L260.149 141.856L258.417 141.49L256.547 141.48L254.648 141.267L252.838 140.94L251.046 140.713L249.219 140.585L245.361 140.375L244.465 140.152L242.553 139.807L240.856 139.207L239.131 138.731L237.42 138.295L235.66 137.986L233.786 137.627L232.033 137.141L230.304 136.686L228.505 136.292L225.062 135.348L223.224 135.156L221.435 134.588L219.7 134.19L217.932 133.722L214.295 132.965L212.566 132.387L210.912 131.875L209.035 131.606L207.384 131.094L205.514 130.913L203.633 130.434L202.011 129.77L200.311 129.436L194.962 128.257L193.188 127.853L191.3 127.462L189.621 126.851L187.907 126.404L186.196 125.989L184.432 125.733L182.537 125.403L180.809 124.945L178.963 124.568L177.26 123.833L175.609 123.45L173.753 123.187L171.954 122.747L170.239 122.257L168.376 121.877L166.719 121.302L164.877 120.979L163.18 120.428L161.501 120.049L159.606 119.867L157.885 119.193L156.128 118.966L154.251 118.6L152.575 117.89L150.819 117.638L148.998 117.237L147.27 116.757L143.657 115.93L142.031 115.38L140.147 115.206L138.337 114.705L136.651 114.112L134.997 113.69L133.077 113.487L131.38 113.001L129.553 112.706L127.796 112.248L124.211 111.407L122.536 110.867L120.737 110.554L118.976 110.107L117.227 109.706L115.448 109.269L113.539 108.829L111.981 108.158L110.164 108.005L108.393 107.593L106.523 107.128L104.872 106.517L103.094 106.155L101.344 105.662L99.6087 105.236L97.8837 104.884L96.0136 104.593L94.3453 103.954L92.5105 103.847L90.697 103.187L89.0677 102.711L87.233 102.566L85.3593 102.005L83.7229 101.43L81.8704 101.167L80.1703 100.659L78.3497 100.301L76.6779 99.8105L74.7865 99.5762L73.065 99.0614L71.2303 98.6104L69.6222 98.0211L67.7521 97.8364L65.9988 97.3465L64.2809 96.8884L62.5276 96.5369L60.6362 96.1712L58.9077 95.596L57.2749 95.1132L55.5322 94.9321L55.7164 93.1675L57.6928 93.3876L59.4355 93.8989L61.1392 94.4705L62.8641 94.7972L64.7095 95.1664L66.4663 95.6351L68.1488 96.1038L70.0119 96.2742L71.7899 96.9275L73.5503 97.3571L75.2186 97.8542L77.1029 98.0885L78.8066 98.5856L80.6343 98.9442L82.3096 99.4448L84.1373 99.6969L85.926 100.322L87.5588 100.808L89.39 100.957L91.2779 101.508L92.8718 102.09L94.7207 102.196L96.4705 102.868L98.2202 103.141L99.9983 103.507L101.794 103.947L103.54 104.437L105.421 104.827L107.089 105.445L108.804 105.868L110.497 106.262L112.409 106.411L114.159 107.164L115.852 107.54L117.634 107.98L119.391 108.378L121.14 108.825L123.021 109.156L124.718 109.706L128.221 110.526L129.956 110.977L131.819 111.279L133.488 111.762L135.365 111.953L137.203 112.422L138.893 113.022L140.536 113.473L142.392 113.629L144.181 114.236L147.719 115.039L149.448 115.522L151.162 115.898L153.054 116.164L154.772 116.892L156.436 117.215L158.328 117.46L160.021 118.124L161.838 118.305L163.683 118.728L165.359 119.267L167.229 119.601L168.897 120.18L170.693 120.539L172.425 121.036L174.128 121.451L175.97 121.71L177.887 122.172L179.495 122.864L181.237 123.219L182.955 123.677L184.708 123.979L186.571 124.252L188.335 124.682L190.188 125.168L191.842 125.772L193.56 126.116L197.123 126.929L200.669 127.696L202.599 128.094L204.242 128.765L205.879 129.173L207.731 129.344L209.488 129.887L211.365 130.157L213.108 130.697L214.805 131.265L218.364 132L220.121 132.468L221.935 132.884L223.585 133.409L225.466 133.615L228.944 134.57L230.736 134.964L232.493 135.426L234.222 135.905L235.975 136.239L237.824 136.566L239.584 137.013L241.419 137.521L243.073 138.11L244.858 138.419L245.705 138.632L249.325 138.81L251.245 138.948L253.132 139.186L254.932 139.513L256.696 139.711L258.601 139.715L260.443 140.102L266.036 140.301L267.864 140.787L271.483 141.014L273.354 141.185L275.316 141.32L277.097 141.7L278.868 141.888L280.753 142.058L282.556 142.374L284.344 142.644L286.172 142.953L288.148 143.379L289.831 144.054L291.503 144.576L293.398 144.963L295.038 145.864L296.851 146.294L298.488 147.249L300.297 147.895L301.863 148.804L303.521 149.635L305.115 150.544L307.544 151.833L307.449 151.989L308.256 152.522L310.105 153.267L311.646 154.23L313.435 154.794L315.213 155.508L316.934 156.126L318.719 156.516L320.678 156.814L322.417 157.265L325.222 157.187L325.109 158.362L324.248 158.281L324.27 158.987L322.215 159.044Z" fill="#07122B"></path><path d="M282.775 102.257L282.722 101.39L281.953 101.589L281.493 99.821L281.1 98.1238L280.384 96.558L279.655 95.1023L278.387 94.03L277.076 92.8442L275.691 91.9459L274.147 91.3565L272.394 90.9908L270.637 90.5115L268.979 90.1209L267.098 90.0179L265.324 89.6629L263.578 89.2652L261.7 89.0451L259.94 88.5906L258.258 88.1752L256.423 88.0439L254.645 87.5326L252.806 87.2734L251.085 86.8189L249.388 86.5278L247.44 86.3964L245.705 85.9419L244.019 85.5869L242.156 85.4875L240.282 85.1608L238.596 84.6886L236.729 84.4614L234.976 83.9785L233.304 83.5702L231.395 83.3891L229.723 82.9204L227.885 82.75L226.16 82.3772L224.364 82.189L222.434 81.8979L220.794 81.3795L218.966 81.2481L215.385 80.5274L213.664 80.3676L211.946 80.7013L210.157 81.1771L208.44 81.6955L206.785 82.3914L205.199 83.2045L203.757 84.2022L201.823 86.0733L201.157 85.3881L201.788 84.7667L201.228 84.1844L202.691 82.7855L204.338 81.6493L206.07 80.7653L207.887 80.0054L209.679 79.4693L211.581 78.9651L213.575 78.5746L215.686 78.7805L219.257 79.4942L221.123 79.6255L222.898 80.183L224.602 80.4315L226.49 80.6303L228.204 81.0031L230.124 81.1878L231.792 81.66L233.658 81.8269L235.422 82.26L237.137 82.7323L239.007 82.9595L240.714 83.4388L242.404 83.73L244.316 83.8329L246.13 84.2199L247.805 84.6566L249.64 84.7667L251.503 85.0934L253.203 85.5443L255.073 85.8106L256.735 86.2863L258.608 86.4319L260.372 86.8686L262.083 87.3089L263.921 87.5219L265.692 87.9267L267.382 88.2675L269.301 88.374L271.072 88.7895L272.836 89.2723L274.71 89.6735L276.495 90.3517L278.21 91.4772L279.552 92.6915L281.075 93.9803L281.982 95.7876L282.786 97.5486L283.211 99.3985L283.937 102.186L282.775 102.257Z" fill="#07122B"></path><path d="M294.744 109.958L294.514 109.102L293.734 109.336L293.239 107.678L292.53 106.098L291.829 104.458L291.096 102.953L289.994 101.603L288.963 100.19L287.858 98.944L286.445 97.8468L285.17 96.6645L283.82 95.6704L282.301 94.8537L280.728 93.9874L279.223 93.217L277.494 92.7163L275.773 92.1021L274.08 91.4239L272.369 90.8949L272.897 89.1978L274.707 89.7623L276.4 90.444L278.061 91.0334L279.953 91.5979L281.557 92.4181L284.819 94.204L286.335 95.326L287.617 96.5154L289.13 97.7013L290.37 99.1073L291.407 100.535L292.597 101.99L293.448 103.737L294.152 105.381L294.917 107.11L295.69 109.702L294.744 109.958Z" fill="#07122B"></path><path d="M229.394 91.0194L227.8 90.2525L228.629 88.5482L229.586 87.1919L230.251 85.5622L231.289 84.11L232.015 82.6046L233.609 83.3786L232.773 85.0793L231.81 86.425L231.148 88.0511L230.12 89.5104L229.394 91.0194Z" fill="#07122B"></path><path d="M254.507 95.5248L252.881 94.8183L253.582 93.1992L254.255 91.4808L255.3 90.0037L255.984 88.5054L256.6 86.8793L258.254 87.5077L257.606 89.2191L256.791 90.9624L255.824 92.3293L255.219 93.8774L254.507 95.5248Z" fill="#07122B"></path><path d="M210.058 73.3414L209.768 71.52L209.339 69.5743L209.229 67.767L208.868 65.9918L208.521 64.0993L208.007 60.2932L207.972 58.486L207.642 56.6503L207.448 54.7934L209.208 54.6052L209.399 56.4302L209.743 58.3794L209.778 60.208L210.27 63.8331L210.607 65.6545L210.993 67.5966L211.103 69.3932L211.51 71.2111L211.804 73.0609L210.058 73.3414Z" fill="#0099F5"></path><path d="M199.046 77.655L194.955 73.895L193.79 72.5635L192.384 71.4061L191.056 70.1456L189.763 68.8568L188.406 67.6674L187.078 66.4176L185.629 65.2814L184.188 64.0245L182.991 62.7605L181.439 61.706L180.224 60.2574L178.878 59.139L177.415 58.0135L175.974 56.7779L174.681 55.4855L173.456 54.2357L171.908 53.1989L170.487 51.974L169.095 50.6426L167.965 49.2934L166.623 48.2282L165.135 47.1914L166.148 45.7322L167.703 46.8186L169.205 48.0152L170.416 49.4602L171.692 50.671L173.02 51.8178L174.589 52.8581L175.938 54.2357L177.199 55.4961L178.545 56.6465L179.98 57.7507L181.528 59.0538L182.636 60.3781L184.142 61.3971L185.442 62.7676L186.773 63.9286L188.265 65.0968L189.596 66.3537L190.988 67.5786L192.288 68.871L193.578 70.0959L195.076 71.3386L196.255 72.6914L200.24 76.3413L199.046 77.655Z" fill="#0099F5"></path><path d="M288.96 92.0419L287.688 90.8063L288.956 89.4997L290.228 88.4346L291.439 87.0854L292.781 85.9918L293.897 87.3694L292.611 88.4168L291.414 89.7554L290.125 90.8312L288.96 92.0419Z" fill="#EF457E"></path><path d="M307.736 94.8254L307.587 93.0537L309.036 92.933L310.47 92.7341L310.711 94.4952L309.209 94.7011L307.736 94.8254Z" fill="#EF457E"></path><path d="M294.074 97.5169L293.646 95.7913L295.516 95.3297L299.277 94.6338L301.066 94.4812L302.94 93.9521L304.806 93.7498L304.994 95.5179L303.205 95.7097L301.303 96.2422L299.472 96.3985L295.863 97.0695L294.074 97.5169Z" fill="#EF457E"></path><path d="M15.3766 172.905L15.3624 171.84L17.1759 171.815L18.9753 171.663L20.7604 171.418L22.581 171.073L24.4476 170.903L26.2469 170.896L28.0321 170.683L29.8952 170.42L31.691 170.391L33.5328 170.132L35.325 170.1L37.1315 169.781L38.9485 169.621L40.723 169.34L42.6038 169.166L44.4386 169.195L46.2273 169.021L48.0054 168.744L49.8224 168.492L51.6996 168.297L53.5061 168.385L55.2948 167.966L57.1472 167.984L58.9465 167.686L60.799 167.515L62.609 167.579L64.3481 167.228L66.1864 166.955L69.8842 166.635L71.6977 166.66L73.5431 166.319L75.3778 166.308L77.1594 166.216L79.0048 165.971L80.8395 165.907L80.875 166.972L79.0686 167.033L77.2338 167.278L75.4061 167.37L73.5997 167.384L71.7898 167.729L69.9231 167.7L66.3068 168.013L64.5322 168.279L62.6975 168.648L60.8273 168.581L59.0634 168.744L57.2322 169.053L55.4116 169.032L53.6052 169.458L51.728 169.365L49.9499 169.546L48.1577 169.798L46.3583 170.075L44.4811 170.26L42.6428 170.232L40.8541 170.399L39.0796 170.675L37.2483 170.842L35.3853 171.165L33.5859 171.197L31.7406 171.457L29.9448 171.485L28.1702 171.741L26.2824 171.961L24.4724 171.968L22.705 172.131L20.9304 172.468L19.0921 172.721L17.2078 172.88L15.3766 172.905Z" fill="#07122B"></path><path d="M70.437 284.857L70.0297 283.873L71.6909 283.178L73.3875 282.325L75.077 281.818L76.6638 280.877L78.4738 280.405L80.1066 279.702L81.7359 278.931L83.3617 278.129L85.1185 277.387L86.8435 276.879L88.494 276.187L90.0915 275.395L91.781 274.695L93.4563 273.829L95.1565 273.268L96.8283 272.469L98.5285 271.912L100.137 271.138L101.865 270.364L103.579 269.824L105.212 269.139L106.795 268.29L108.467 267.502L110.21 266.788L111.924 266.227L113.564 265.567L115.215 264.676L116.926 264.062L118.64 263.49L120.276 262.762L121.952 261.924L123.631 261.37L125.228 260.468L126.942 259.733L128.671 259.169L130.343 258.555L132.021 257.798L133.736 257.195L135.372 256.492L136.991 255.718L138.638 254.827L140.441 254.415L142.013 253.63L143.664 252.845L145.407 252.078L147.11 251.596L148.701 250.712L150.372 250.001L152.08 249.245L153.762 248.709L155.423 247.782L157.162 247.296L158.795 246.671L160.449 245.716L162.135 245.19L163.754 244.282L165.461 243.653L167.094 242.936L168.791 242.286L170.463 241.455L172.191 240.877L173.849 240.248L175.471 239.478L177.207 238.629L178.914 238.224L180.472 237.269L182.279 236.786L183.904 236.076L187.184 234.45L188.874 233.786L190.578 233.136L192.281 232.561L193.907 231.716L195.589 231.038L197.297 230.466L198.901 229.543L200.722 229.103L204.037 227.725L205.649 226.951L207.324 226.05L209.042 225.506L210.678 224.853L212.329 223.962L214.008 223.358L215.676 222.535L217.38 221.956L219.059 221.228L220.734 220.642L222.285 219.769L222.806 220.695L221.127 221.633L219.431 222.229L217.741 222.957L216.051 223.532L214.397 224.349L212.726 224.952L211.1 225.829L209.378 226.518L207.689 227.051L206.134 227.899L204.469 228.698L201.012 230.129L199.298 230.545L197.683 231.457L195.954 232.036L194.328 232.693L192.66 233.559L190.935 234.141L189.256 234.78L187.592 235.434L184.354 237.038L182.59 237.805L180.897 238.26L179.321 239.222L177.508 239.652L175.935 240.436L174.245 241.235L172.545 241.881L170.835 242.453L169.195 243.27L167.498 243.919L165.858 244.64L164.161 245.265L162.504 246.188L160.821 246.714L159.217 247.651L157.471 248.315L155.774 248.791L154.138 249.707L152.427 250.25L150.798 250.978L149.143 251.681L147.457 252.604L145.732 253.094L144.107 253.815L142.477 254.589L140.738 255.441L139.013 255.831L137.473 256.666L135.808 257.465L134.122 258.189L132.397 258.796L130.725 259.549L129.021 260.174L127.293 260.738L125.674 261.434L124.013 262.368L122.324 262.925L120.73 263.724L118.998 264.495L117.269 265.066L115.611 265.666L113.989 266.543L112.268 267.236L110.557 267.797L108.896 268.478L107.274 269.242L105.644 270.115L103.923 270.832L102.212 271.372L100.586 272.103L98.8933 272.909L97.1931 273.47L95.5213 274.266L93.8318 274.827L92.2096 275.672L90.5307 276.368L88.9332 277.159L87.1693 277.891L85.4479 278.402L83.8009 279.098L82.1964 279.89L80.5458 280.674L78.7819 281.427L77.0747 281.867L75.4454 282.819L73.7381 283.334L72.1159 284.154L70.437 284.857Z" fill="#07122B"></path><path d="M280.962 279.542L280.126 278.885L281.227 277.476L282.209 275.871L283.356 274.497L284.387 272.945L285.566 271.585L286.657 270.108L287.808 268.759L288.733 267.179L289.827 265.645L291.053 264.296L292.183 262.954L293.139 261.324L294.336 259.978L295.42 258.548L296.589 257.17L297.57 255.572L298.746 254.227L299.734 252.7L300.868 251.202L302.093 249.899L303.12 248.443L304.155 246.909L305.27 245.51L306.262 243.969L308.43 241.054L309.585 239.623L310.753 238.256L311.788 236.673L313.038 235.384L314.115 233.964L316.183 230.907L317.384 229.604L318.365 228.034L319.509 226.667L320.469 225.162L321.525 223.618L324.897 219.339L326.044 217.958L327.025 216.392L328.159 214.976L329.303 213.598L330.341 212L331.616 210.736L332.653 209.341L333.589 207.669L334.768 206.33L335.753 204.846L336.819 203.305L337.963 201.92L339.064 200.372L340.35 199.137L341.346 197.681L342.362 196.097L344.71 193.371L345.688 191.798L346.818 190.431L347.753 188.819L349.127 187.541L351.27 184.672L352.124 185.307L349.885 188.29L348.592 189.49L347.664 191.077L346.531 192.451L345.539 194.038L343.191 196.765L342.231 198.27L341.126 199.864L339.837 201.107L338.795 202.584L337.655 203.965L336.631 205.442L335.586 207.008L334.424 208.332L333.525 209.948L332.391 211.468L331.13 212.717L330.142 214.255L328.98 215.65L327.872 217.035L326.884 218.611L325.722 220.01L322.368 224.264L321.355 225.748L320.345 227.324L319.205 228.691L318.199 230.289L316.991 231.599L314.979 234.585L313.824 236.105L312.585 237.379L311.582 238.92L310.403 240.305L309.269 241.707L307.126 244.594L306.117 246.153L304.998 247.559L303.992 249.05L302.894 250.605L301.658 251.912L300.595 253.325L299.568 254.901L298.399 256.236L297.425 257.827L296.249 259.215L295.144 260.671L293.968 261.992L293.026 263.607L291.85 264.999L290.635 266.341L289.615 267.779L288.644 269.412L287.475 270.786L286.385 272.27L285.212 273.62L284.192 275.161L283.048 276.524L282.085 278.107L280.962 279.542Z" fill="#07122B"></path><path d="M177.129 83.4532L175.598 82.4804L173.99 81.7738L172.141 81.227L170.562 80.3713L168.879 79.7322L167.13 79.0292L165.511 78.2162L163.747 77.4812L162.242 76.4977L160.588 75.8444L158.809 75.2018L155.604 73.5082L153.84 72.8975L152.243 72.0951L150.45 71.5376L148.885 70.4725L145.591 69.0096L142.265 67.5717L140.416 67.0249L138.826 66.1479L137.179 65.4094L135.457 64.6922L133.838 63.8259L132.259 63.0057L130.498 62.4483L127.095 60.989L125.522 60.1404L123.705 59.5297L122.196 58.5817L120.471 58.0136L118.714 57.2609L117.181 56.3165L115.562 55.6277L113.727 55.0454L112.144 54.1578L110.536 53.4086L108.744 52.837L107.097 52.0452L105.442 51.3102L103.785 50.4688L102.237 49.5598L100.416 49.116L98.8366 48.0722L97.1931 47.3905L95.4505 46.7443L93.7999 45.9596L92.082 45.2104L90.5236 44.3015L87.1835 42.9026L85.4904 42.2351L83.8292 41.4469L82.0689 40.7936L80.4431 39.9521L78.7996 39.2349L77.1172 38.5638L75.3745 37.7863L73.8337 36.8738L72.0698 36.2205L70.5078 35.3044L68.8927 34.5801L67.104 33.9943L65.4605 33.1919L63.8701 32.3469L62.0956 31.7965L60.4309 31.0367L58.798 30.1846L57.1404 29.4638L57.5654 28.4874L59.2762 29.233L60.8984 30.0816L62.5029 30.813L64.3235 31.3811L65.9422 32.2439L67.5326 33.0215L69.3 33.5966L71.0214 34.3707L72.5657 35.276L74.3296 35.9293L75.8881 36.8525L77.528 37.5803L79.2105 38.2549L80.9 38.9899L82.5293 39.8314L84.2613 40.474L85.9119 41.2551L87.5802 41.9155L91.0265 43.3642L92.5885 44.2731L94.2391 44.9867L95.8826 45.7714L97.5792 46.3999L99.3785 47.1526L100.848 48.1219L102.637 48.5657L104.291 49.535L105.896 50.348L107.543 51.0795L109.169 51.8606L110.954 52.4287L112.647 53.2169L114.198 54.0903L115.951 54.6371L117.701 55.3898L119.238 56.3342L120.864 57.023L122.706 57.6444L124.215 58.5924L125.986 59.1818L127.576 60.0374L130.895 61.4577L132.709 62.0399L134.334 62.885L135.932 63.7407L137.597 64.4295L139.318 65.2035L140.873 66.0627L142.658 66.5811L147.691 68.7682L149.444 69.5635L150.914 70.5648L152.682 71.1222L154.283 71.9282L156.064 72.546L159.27 74.2431L160.963 74.8467L162.776 75.5781L164.285 76.5616L165.968 77.254L167.586 78.067L169.265 78.7416L171.036 79.4162L172.598 80.2648L174.387 80.7832L176.133 81.5608L177.699 82.5514L177.129 83.4532Z" fill="#07122B"></path><path d="M41.2823 22.3273L39.5998 21.5923L38.0484 20.7686L36.281 20.1863L34.7473 19.3306L33.0932 18.7412L31.4037 18.0773L31.7933 17.0867L33.4651 17.7435L35.2219 18.3791L36.7521 19.2276L38.5054 19.8064L40.078 20.6408L41.7073 21.3509L41.2823 22.3273Z" fill="#07122B"></path><path d="M353.668 138.87L353.016 137.201L351.943 135.65L351.195 134.006L350.161 132.426L349.407 130.743L348.599 129.113L347.763 127.529L346.665 125.946L345.935 124.249L344.32 121.014L343.286 119.463L342.425 117.84L341.497 116.281L340.647 114.609L339.797 112.99L338.954 111.346L338.058 109.77L337.066 108.09L336.514 106.375L335.582 104.863L334.477 103.262L333.808 101.557L333.036 99.9632L331.92 98.3796L331.261 96.7251L330.149 95.2268L329.518 93.4551L327.609 90.3732L326.628 88.676L326.068 86.9824L324.974 85.4486L324.262 83.8012L323.228 82.2709L322.346 80.6589L321.531 78.9831L320.678 77.3818L319.721 75.7557L319.006 74.0585L318.248 72.4288L317.323 70.8737L316.339 69.2546L315.598 67.625L314.504 66.1053L313.849 64.2874L314.847 63.9253L315.45 65.6011L316.544 67.135L317.295 68.7824L318.234 70.3233L319.201 71.9566L319.976 73.6253L320.688 75.3083L321.602 76.8599L322.477 78.5002L323.288 80.1725L324.145 81.7383L325.215 83.3325L325.927 84.9693L327.025 86.4925L327.62 88.2855L328.52 89.8229L330.499 93.0432L331.098 94.719L332.224 96.2671L332.883 97.9252L333.974 99.4554L334.789 101.149L335.441 102.814L336.468 104.274L337.506 105.985L338.062 107.707L338.975 109.234L339.889 110.838L340.739 112.5L341.593 114.119L342.429 115.767L343.35 117.318L344.214 118.941L345.255 120.51L346.899 123.798L347.618 125.47L348.684 127L349.545 128.627L350.366 130.288L351.114 131.95L352.145 133.526L352.888 135.163L353.983 136.754L354.656 138.483L353.668 138.87Z" fill="#07122B"></path><path d="M309.91 173.083L309.538 172.085L311.291 171.435L313.027 171.056L314.688 170.48L316.356 169.859L318.07 169.284L319.728 168.709L321.414 167.888L323.15 167.427L326.539 166.394L328.225 165.73L329.897 165.208L331.555 164.416L333.266 163.88L336.599 162.641L338.338 161.941L340.059 161.593L341.717 160.922L345.124 159.878L348.496 158.561L350.193 158.1L351.811 157.418L353.519 156.793L355.151 156.115L355.559 157.098L353.901 157.784L352.201 158.409L350.504 159.119L348.801 159.58L345.454 160.894L342.05 161.934L340.318 162.627L338.596 162.975L336.981 163.635L333.609 164.888L331.909 165.424L330.248 166.216L328.558 166.738L326.869 167.406L323.44 168.449L321.736 168.904L320.107 169.703L318.414 170.292L316.71 170.86L315.049 171.482L313.282 172.089L311.553 172.469L309.91 173.083Z" fill="#07122B"></path><path d="M178.18 186.717L176.264 186.159L174.67 185.389L173.016 184.956L171.096 184.64L169.254 184.047L167.625 183.319L165.829 182.818L164.2 182.172L162.369 181.835L160.502 181.27L158.873 180.539L157.194 180.07L155.345 179.651L153.595 179.09L151.799 178.476L150.121 177.808L148.403 177.286L146.695 176.718L144.889 176.388L142.983 175.919L139.58 174.577L137.94 174.02L136.084 173.757L134.313 173.083L132.45 172.554L130.863 171.826L129.099 171.474L127.328 170.998L125.504 170.441L123.775 169.823L122.05 169.241L120.325 168.73L118.572 168.254L116.794 167.721L114.963 167.238L113.273 166.61L111.541 166.116L109.685 165.602L107.978 164.909L106.292 164.252L104.624 163.684L102.81 163.294L99.1868 162.239L97.5327 161.54L95.7865 161.014L94.0757 160.421L92.3862 159.939L90.4948 159.633L88.7946 158.884L86.9492 158.529L85.1357 157.893L83.5702 157.169L81.7248 156.878L79.883 156.278L78.3033 155.557L76.4295 155.223L74.7329 154.581L73.0434 154.052L71.1697 153.622L69.4483 152.979L67.7694 152.323L65.9382 151.84L64.2274 151.158L64.8827 149.511L66.5403 150.171L68.3645 150.65L70.0788 151.321L71.7293 151.936L73.5357 152.347L75.3351 152.912L76.9715 153.53L78.8275 153.846L80.5666 154.641L82.1994 155.167L84.0838 155.451L85.8406 156.264L87.4699 156.832L89.3188 157.18L91.0013 157.915L92.8218 158.217L94.6283 158.735L96.3497 159.328L98.1773 159.885L99.8279 160.585L103.274 161.579L105.144 161.987L106.915 162.591L108.633 163.258L110.302 163.936L112.019 164.405L113.854 164.934L115.537 165.559L117.269 166.01L119.057 166.546L120.807 167.022L122.585 167.547L124.353 168.144L126.078 168.762L127.813 169.291L129.527 169.752L131.412 170.125L133.123 170.91L134.901 171.41L136.526 172.028L138.432 172.312L140.21 172.916L143.575 174.247L145.279 174.655L147.195 175.014L148.937 175.593L150.74 176.143L152.433 176.814L154.148 177.404L155.844 177.947L157.647 178.352L159.539 178.895L161.171 179.626L162.826 180.12L164.767 180.489L166.435 181.149L168.284 181.671L169.931 182.403L171.571 182.928L173.42 183.226L175.361 183.752L176.965 184.529L178.662 185.005L178.18 186.717Z" fill="#07122B"></path></svg>